<!--?xml version="1.0" encoding="utf-8"?-->
<!-- Generator: Adobe Illustrator 18.1.1, SVG Export Plug-In . SVG Version: 6.00 Build 0)  -->

<svg version="1.1" id="_x32_" xmlns="http://www.w3.org/2000/svg" xmlns:xlink="http://www.w3.org/1999/xlink" x="0px" y="0px" viewBox="0 0 512 512" style="width: 32px; height: 32px; opacity: 1;" xml:space="preserve">
<style type="text/css">
	.st0{fill:#4B4B4B;}
</style>
<g>
	<path class="st0" d="M459.772,147.559V34.37c0-18.985-15.393-34.37-34.37-34.37H157.397c-9.112,0-17.854,3.617-24.3,10.07
		L62.291,80.869c-6.446,6.446-10.063,15.188-10.063,24.308v372.461c0,18.976,15.385,34.362,34.362,34.362h338.813
		c18.977,0,34.37-15.386,34.37-34.362v-259.65h-33.541v-70.429H459.772z M299.281,38.438h32.557v77.4h-32.557V38.438z
		 M238.905,38.438h32.566v77.4h-32.566V38.438z M178.539,38.438h32.566v77.4h-32.566V38.438z M118.172,63.721h32.566v77.409h-32.566
		V63.721z M388.219,428.162H123.273V382.86h264.947V428.162z M392.205,115.838h-32.566v-77.4h32.566V115.838z" style="fill: rgb(0, 100, 0);"></path>
</g>
</svg>
