<?xml version="1.0" encoding="UTF-8"?>
<svg id="up" xmlns="http://www.w3.org/2000/svg" viewBox="0 0 287.42 252.27">
  <defs>
    <style>
      .cls-1 {
        fill: #fff;
      }

      .cls-1, .cls-2 {
        fill-rule: evenodd;
      }

      .cls-2, .cls-3 {
        fill: #118b3b;
      }
    </style>
  </defs>
  <path class="cls-2" d="M111.82,77.68l.08-.05h0s25.04-14.47,25.04-14.47c3.3-1.91,5.19-5.18,5.19-9v-1.33c0-3.96-2.05-7.35-5.56-9.19-7.37-3.87-12.39-11.6-12.39-20.5,0-12.78,10.36-23.15,23.15-23.15s23.14,10.36,23.14,23.15c0,8.9-5.03,16.63-12.4,20.5-3.51,1.84-5.56,5.24-5.56,9.19v1.33c0,3.81,1.89,7.09,5.2,9l25.04,14.46c.12.06.22.13.33.21l31.77,18.34c.46.26.89.57,1.28.94l.02.02.07.07.07.07.02.02.02.02.08.08h.01s.02.03.02.03c.47.51.85,1.08,1.12,1.7.38.82.57,1.69.58,2.55h0s0,.1,0,.1h0s.03,0,.03,0v60.89c0,6.2,3.07,11.52,8.43,14.62l.42.24c5.33,3.08,11.42,3.1,16.78.06,4.25-2.41,9.17-3.79,14.4-3.79,16.13,0,29.2,13.07,29.2,29.2s-13.08,29.2-29.2,29.2-29.08-12.95-29.2-28.98c-.05-6.15-3.11-11.41-8.44-14.49l-.46-.27c-5.37-3.1-11.51-3.1-16.88,0l-20.5,11.83h0s-31.81,18.37-31.81,18.37c-1.03.7-2.28,1.11-3.62,1.11s-2.58-.41-3.62-1.1l-31.81-18.37c-.11-.07-.22-.13-.33-.21l-31.84-18.38c-2.07-1.19-3.23-3.35-3.23-5.57h-.03v-60.12c0-6.67-3.31-12.4-9.09-15.74l-.4-.23c-5.85-3.38-12.57-3.33-18.38.12-4.81,2.86-10.42,4.5-16.43,4.5C14.41,104.68,0,90.27,0,72.5c0-17.77,14.41-32.18,32.18-32.18s32.18,14.41,32.18,32.18v.4c-.08,6.75,3.24,12.59,9.08,15.96l.42.24c5.78,3.34,12.39,3.34,18.17,0l19.78-11.42h0ZM153.78,142.66v59.5l51.49-29.71v-59.52h0l-51.49,29.73ZM173.06,141.09,198.87,101.78l-51.54-29.74-51.54,29.74h0l51.54,29.76,51.54-29.76ZM79.48,244.7c8.64-9.47,7.96-24.16-1.51-32.8-9.48-8.65-24.16-7.97-32.81,1.51-8.64,9.48-7.96,24.17,1.51,32.81,9.48,8.64,24.16,7.96,32.81-1.51h0Z"/>
  <path class="cls-1" d="M10.13,89.83c-7.91-10.38-6.88-25.02,2.39-34.2,9.28-9.18,23.92-10.05,34.22-2.04-10.36-3.76-21.95-1.22-29.79,6.53-7.83,7.75-10.49,19.32-6.83,29.71Z"/>
  <path class="cls-1" d="M81.55,234.17c-3.23,8.85-12.53,13.92-21.71,11.85-9.18-2.06-15.42-10.62-14.56-20,1.74,7.75,7.8,13.81,15.56,15.56,7.75,1.74,15.82-1.14,20.71-7.41Z"/>
  <path class="cls-1" d="M137.9,7.66c8.69-3.56,18.66-.12,23.31,8.03,4.65,8.15,2.53,18.49-4.95,24.15,4.54-6.49,4.93-15.02,1.01-21.9-3.93-6.88-11.46-10.89-19.37-10.28Z"/>
  <path class="cls-1" d="M249.62,180.34c10.96-4.49,23.55-.15,29.41,10.14,5.87,10.29,3.19,23.33-6.26,30.47,5.73-8.19,6.23-18.95,1.28-27.63-4.95-8.68-14.47-13.74-24.44-12.97Z"/>
  <path class="cls-3" d="M264.96,62.79c-2.42-7.13-10.16-10.94-17.28-8.52-7.13,2.42-10.94,10.15-8.52,17.28.39,1.16.97,2.19,1.61,3.15-1.26-3.66-.55-7.83,2.15-10.88,3.67-4.13,9.83-4.91,14.4-1.81-4.48-1.31-9.3.09-12.4,3.58-2.68,3.03-3.64,7.15-2.65,10.99,3.55,3.68,9,5.23,14.17,3.48,7.12-2.42,10.94-10.16,8.52-17.28Z"/>
</svg>