<?xml version="1.0" encoding="utf-8"?>
<!-- Generator: Adobe Illustrator 27.0.1, SVG Export Plug-In . SVG Version: 6.00 Build 0)  -->
<svg version="1.1" id="_イヤー_1" xmlns="http://www.w3.org/2000/svg" xmlns:xlink="http://www.w3.org/1999/xlink" x="0px"
	 y="0px" viewBox="0 0 332.7 332.7" style="enable-background:new 0 0 332.7 332.7;" xml:space="preserve">
<style type="text/css">
	.st0{fill-rule:evenodd;clip-rule:evenodd;fill:#339933;}
	.st1{fill-rule:evenodd;clip-rule:evenodd;fill:#FFFFFF;}
	.st2{fill:#339933;}
	.st3{fill:none;}
</style>
<path class="st0" d="M131.7,109.4L131.7,109.4L131.7,109.4l27.2-15.7c3.6-2.1,5.6-5.6,5.6-9.7v-1.4c0-4.3-2.2-7.9-6-9.9
	c-8-4.2-13.4-12.5-13.4-22.2c0-13.8,11.2-25,25-25s25,11.2,25,25c0,9.6-5.4,18-13.4,22.2c-3.8,2-6,5.7-6,9.9V84c0,4.1,2,7.7,5.6,9.7
	l27.1,15.6c0.1,0.1,0.2,0.2,0.4,0.2l34.3,19.8c0.5,0.3,1,0.6,1.4,1l0,0l0.1,0.1l0.1,0.1l0,0l0,0l0.1,0.1h0l0,0
	c0.5,0.6,0.9,1.2,1.2,1.8c0.4,0.9,0.6,1.8,0.6,2.8l0,0v0.1h0v65.8c0,6.7,3.3,12.4,9.1,15.8l0.5,0.3c5.8,3.3,12.4,3.4,18.1,0.1
	c4.6-2.6,9.9-4.1,15.6-4.1c17.4,0,31.6,14.1,31.6,31.6s-14.1,31.6-31.6,31.6s-31.4-14-31.6-31.3c0-6.6-3.4-12.3-9.1-15.7l-0.5-0.3
	c-5.8-3.4-12.4-3.4-18.2,0l-22.1,12.8l0,0l-34.4,19.9c-1.1,0.8-2.5,1.2-3.9,1.2s-2.8-0.4-3.9-1.2l-34.4-19.9
	c-0.1-0.1-0.2-0.1-0.4-0.2l-34.4-19.9c-2.2-1.3-3.5-3.6-3.5-6h0v-65c0-7.2-3.6-13.4-9.8-17l-0.4-0.2c-6.3-3.6-13.6-3.6-19.9,0.1
	c-5.2,3.1-11.3,4.9-17.8,4.9c-19.2,0-34.8-15.6-34.8-34.8C10.8,84.6,26.3,69,45.6,69s34.8,15.6,34.8,34.8v0.4
	c-0.1,7.3,3.5,13.6,9.8,17.2l0.5,0.3c6.2,3.6,13.4,3.6,19.6,0L131.7,109.4L131.7,109.4L131.7,109.4z M177,179.6v64.3l55.6-32.1
	v-64.3l0,0L177,179.6L177,179.6z M197.9,177.9l27.9-42.5L170,103.3l-55.7,32.2l0,0l55.7,32.2l55.7-32.2L197.9,177.9z M96.7,289.9
	c9.3-10.2,8.6-26.1-1.6-35.5c-10.2-9.3-26.1-8.6-35.5,1.6c-9.3,10.2-8.6,26.1,1.6,35.5C71.5,300.9,87.4,300.2,96.7,289.9L96.7,289.9
	L96.7,289.9z"/>
<path class="st1" d="M21.7,122.5c-8.5-11.2-7.4-27,2.6-37s25.9-10.9,37-2.2c-11.2-4.1-23.7-1.3-32.2,7.1S17.8,111.3,21.7,122.5z"/>
<path class="st1" d="M98.9,278.5c-3.5,9.6-13.5,15-23.5,12.8s-16.7-11.5-15.7-21.6c1.9,8.4,8.4,14.9,16.8,16.8
	C84.9,288.4,93.6,285.3,98.9,278.5L98.9,278.5z"/>
<path class="st1" d="M159.8,33.7c9.4-3.9,20.2-0.1,25.2,8.7s2.7,20-5.4,26.1c4.9-7,5.3-16.2,1.1-23.7S168.4,33,159.8,33.7
	L159.8,33.7z"/>
<path class="st1" d="M280.6,220.4c11.8-4.9,25.5-0.2,31.8,11c6.3,11.1,3.5,25.2-6.8,32.9c6.2-8.9,6.7-20.5,1.4-29.9
	S291.4,219.5,280.6,220.4L280.6,220.4z"/>
<path class="st2" d="M297.2,93.3c-2.6-7.7-11-11.8-18.7-9.2c-7.7,2.6-11.8,11-9.2,18.7c0.4,1.2,1,2.4,1.7,3.4
	c-1.4-3.9-0.6-8.5,2.3-11.8c4-4.5,10.6-5.3,15.6-1.9c-4.8-1.4-10,0.1-13.4,3.9c-2.9,3.3-3.9,7.7-2.9,11.9c3.8,4,9.7,5.7,15.3,3.8
	C295.7,109.4,299.8,101,297.2,93.3L297.2,93.3z"/>
<rect class="st3" width="332.7" height="332.7"/>
</svg>
