<?xml version="1.0" encoding="utf-8"?>
<!-- Generator: Adobe Illustrator 27.0.1, SVG Export Plug-In . SVG Version: 6.00 Build 0)  -->
<svg version="1.1" id="レイヤー_1" xmlns:serif="http://www.serif.com/"
	 xmlns="http://www.w3.org/2000/svg" xmlns:xlink="http://www.w3.org/1999/xlink" x="0px" y="0px" viewBox="0 0 456 456"
	 style="enable-background:new 0 0 456 456;" xml:space="preserve">
<style type="text/css">
	.st0{fill:#FFFFFF;stroke:#FFFFFF;stroke-width:2.8346;stroke-miterlimit:10;}
	.st1{fill-rule:evenodd;clip-rule:evenodd;fill:#FFFFFF;}
	.st2{fill:#FFFFFF;}
	.st3{fill:none;}
</style>
<g>
	<g>
		<path class="st0" d="M78.8,369.5h-7.5c-1.9,0-3.5,1.1-4.3,2.7l-21.5,47.1c-0.2,0.5-0.7,0.8-1.2,0.8s-0.9-0.3-1.1-0.8l-19.7-47.1
			c-0.7-1.6-2.3-2.7-4.1-2.7h-8.2c-0.7,0-1.2-0.5-1.2-1.3c0-0.7,0.5-1.2,1.2-1.2h8.2c2.8,0,5.3,1.7,6.4,4.3l18.3,43.8
			c0.1,0.2,0.4,0.2,0.5,0l20-43.9c1.2-2.6,3.8-4.2,6.6-4.2h7.5c0.7,0,1.2,0.5,1.2,1.2C80.1,369,79.5,369.5,78.8,369.5z M27.9,420.1
			H11.3c-0.7,0-1.2-0.6-1.2-1.3c0-0.7,0.5-1.2,1.2-1.2h4.5c1.4,0,2.6-1.2,2.6-2.6v-41.3c0-0.7,0.5-1.3,1.2-1.3s1.2,0.6,1.2,1.3V415
			c0,0.7-0.2,1.4-0.4,2c-0.1,0.2,0.1,0.5,0.4,0.5h7c0.7,0,1.2,0.5,1.2,1.2C29.1,419.5,28.6,420.1,27.9,420.1z M78.8,420.1H62.3
			c-0.7,0-1.2-0.6-1.2-1.3c0-0.7,0.5-1.2,1.2-1.2h7.1c0.2,0,0.5-0.3,0.3-0.5c-0.2-0.6-0.4-1.3-0.4-2v-41.3c0-0.7,0.5-1.3,1.2-1.3
			s1.2,0.6,1.2,1.3V415c0,1.4,1.2,2.6,2.6,2.6h4.5c0.7,0,1.2,0.5,1.2,1.2C80.1,419.5,79.5,420.1,78.8,420.1z"/>
		<path class="st0" d="M119.6,369.5H103c-0.7,0-1.2-0.5-1.2-1.3c0-0.7,0.5-1.2,1.2-1.2h16.6c0.7,0,1.2,0.5,1.2,1.2
			C120.9,369,120.3,369.5,119.6,369.5z M131.4,420.1h-28.3c-0.7,0-1.2-0.6-1.2-1.3c0-0.7,0.5-1.2,1.2-1.2h4.5c1.4,0,2.6-1.2,2.6-2.6
			v-41.3c0-0.7,0.5-1.3,1.2-1.3s1.2,0.6,1.2,1.3V415c0,0.7-0.2,1.4-0.4,2c-0.1,0.2,0.1,0.5,0.4,0.5h18.8c1.4,0,2.5-1.2,2.5-2.6v-7.3
			c0-0.7,0.6-1.2,1.3-1.2s1.2,0.5,1.2,1.2v7.3C136.5,417.8,134.2,420.1,131.4,420.1z"/>
		<path class="st0" d="M179,421.3c-11.5,0-20.9-9.4-20.9-20.9s9.4-20.9,20.9-20.9s21,9.5,21,20.9C200,412,190.6,421.3,179,421.3z
			 M179,382.1c-10.1,0-18.4,8.3-18.4,18.4c0,10.1,8.2,18.4,18.4,18.4c10.1,0,18.4-8.2,18.4-18.4C197.4,390.3,189.2,382.1,179,382.1z
			"/>
		<path class="st0" d="M270.9,383.4h-5c-1.4,0-2.5,1.1-2.5,2.5v30.4c0,9.8-8,17.8-17.7,17.8h-9.1c-0.7,0-1.3-0.6-1.3-1.3
			c0-0.7,0.6-1.2,1.3-1.2h9.1c8.4,0,15.2-6.8,15.2-15.3v-15.9c0-10.1-8.2-18.4-18.4-18.4c-10.1,0-18.4,8.3-18.4,18.4
			c0,10.1,8.2,18.4,18.4,18.4c4.9,0,9.5-1.9,13-5.3c0.5-0.5,1.2-0.5,1.8,0c0.5,0.5,0.5,1.3,0,1.8c-3.9,3.9-9.2,6.1-14.8,6.1
			c-11.5,0-20.9-9.4-20.9-20.9s9.4-20.9,20.9-20.9c7.6,0,14.2,4.1,17.9,10.1c0.2,0.2,0.5,0.2,0.5-0.2v-3.6c0-2.8,2.2-5,5-5h5
			c0.7,0,1.2,0.5,1.2,1.2C272.1,382.8,271.6,383.4,270.9,383.4z"/>
		<path class="st0" d="M340,383.4h-5c-1.4,0-2.5,1.1-2.5,2.5v30.4c0,9.8-8,17.8-17.7,17.8h-9.1c-0.7,0-1.3-0.6-1.3-1.3
			c0-0.7,0.6-1.2,1.3-1.2h9.1c8.4,0,15.2-6.8,15.2-15.3v-15.9c0-10.1-8.2-18.4-18.4-18.4c-10.1,0-18.4,8.3-18.4,18.4
			c0,10.1,8.2,18.4,18.4,18.4c4.9,0,9.5-1.9,13-5.3c0.5-0.5,1.2-0.5,1.8,0c0.5,0.5,0.5,1.3,0,1.8c-3.9,3.9-9.2,6.1-14.8,6.1
			c-11.5,0-20.9-9.4-20.9-20.9s9.4-20.9,20.9-20.9c7.6,0,14.2,4.1,17.9,10.1c0.2,0.2,0.5,0.2,0.5-0.2v-3.6c0-2.8,2.2-5,5-5h5
			c0.7,0,1.2,0.5,1.2,1.2C341.2,382.8,340.7,383.4,340,383.4z"/>
		<path class="st0" d="M399.5,400c-0.9,1.1-2.2,1.7-3.5,1.7h-30.4c-0.7,0-1.3-0.6-1.3-1.3c0-0.7,0.6-1.2,1.3-1.2H396
			c0.6,0,1.2-0.3,1.5-0.8c0.4-0.5,0.5-1.1,0.4-1.6c-1.7-8.5-9.3-14.7-18-14.7c-10.1,0-18.4,8.3-18.4,18.4s8.2,18.4,18.4,18.4
			c6.1,0,11.8-3,15.3-8.1c0.4-0.6,1.2-0.8,1.7-0.3c0.6,0.4,0.8,1.2,0.4,1.7c-3.9,5.8-10.4,9.2-17.3,9.2c-11.5,0-20.9-9.4-20.9-20.9
			s9.4-20.9,20.9-20.9c9.9,0,18.5,7,20.4,16.7C400.7,397.6,400.3,398.9,399.5,400z"/>
		<path class="st0" d="M448.8,382.1c-10.1,0-18.4,8.3-18.4,18.4V415c0,0.7-0.2,1.4-0.4,2c-0.1,0.2,0.1,0.5,0.4,0.5h6.9
			c0.7,0,1.2,0.5,1.2,1.2s-0.5,1.3-1.2,1.3h-16.8c-0.7,0-1.3-0.6-1.3-1.3c0-0.7,0.6-1.2,1.3-1.2h4.9c1.4,0,2.6-1.2,2.6-2.6v-29.1
			c0-1.4-1.2-2.5-2.6-2.5h-5c-0.7,0-1.2-0.6-1.2-1.3c0-0.7,0.5-1.2,1.2-1.2h5c2.8,0,5,2.2,5,5v3.6c0,0.3,0.4,0.4,0.5,0.2
			c3.6-6,10.3-10.1,17.9-10.1c0.7,0,1.2,0.6,1.2,1.3C450,381.5,449.5,382.1,448.8,382.1z"/>
	</g>
</g>
<path class="st1" d="M194.3,126.2L194.3,126.2L194.3,126.2l27.2-15.7c3.6-2.1,5.6-5.6,5.6-9.7v-1.4c0-4.3-2.2-7.9-6-9.9
	c-8-4.2-13.4-12.5-13.4-22.2c0-13.8,11.2-25,25-25s25,11.2,25,25c0,9.6-5.4,18-13.4,22.2c-3.8,2-6,5.7-6,9.9v1.4
	c0,4.1,2,7.7,5.6,9.7l27.1,15.6c0.1,0.1,0.2,0.2,0.4,0.2l34.3,19.8c0.5,0.3,1,0.6,1.4,1l0,0l0.1,0.1l0.1,0.1l0,0l0,0l0.1,0.1l0,0
	l0,0c0.5,0.6,0.9,1.2,1.2,1.8c0.4,0.9,0.6,1.8,0.6,2.8l0,0v0.1l0,0v65.8c0,6.7,3.3,12.4,9.1,15.8l0.5,0.3c5.8,3.3,12.4,3.4,18.1,0.1
	c4.6-2.6,9.9-4.1,15.6-4.1c17.4,0,31.6,14.1,31.6,31.6s-14.1,31.6-31.6,31.6s-31.4-14-31.6-31.3c0-6.6-3.4-12.3-9.1-15.7l-0.5-0.3
	c-5.8-3.4-12.4-3.4-18.2,0l-22.1,12.8l0,0l-34.4,19.9c-1.1,0.8-2.5,1.2-3.9,1.2s-2.8-0.4-3.9-1.2l-34.4-19.9
	c-0.1-0.1-0.2-0.1-0.4-0.2l-34.4-19.9c-2.2-1.3-3.5-3.6-3.5-6l0,0v-65c0-7.2-3.6-13.4-9.8-17l-0.4-0.2c-6.3-3.6-13.6-3.6-19.9,0.1
	c-5.2,3.1-11.3,4.9-17.8,4.9c-19.2,0-34.8-15.6-34.8-34.8c0-19.2,15.5-34.8,34.8-34.8s34.8,15.6,34.8,34.8v0.4
	c-0.1,7.3,3.5,13.6,9.8,17.2l0.5,0.3c6.2,3.6,13.4,3.6,19.6,0L194.3,126.2L194.3,126.2L194.3,126.2z M239.6,196.4v64.3l55.6-32.1
	v-64.3l0,0L239.6,196.4L239.6,196.4z M260.5,194.7l27.9-42.5l-55.8-32.1l-55.7,32.2l0,0l55.7,32.2l55.7-32.2L260.5,194.7z
	 M159.3,306.7c9.3-10.2,8.6-26.1-1.6-35.5c-10.2-9.3-26.1-8.6-35.5,1.6c-9.3,10.2-8.6,26.1,1.6,35.5
	C134.1,317.7,150,317,159.3,306.7L159.3,306.7L159.3,306.7z"/>
<path class="st1" d="M84.3,139.3c-8.5-11.2-7.4-27,2.6-37s25.9-10.9,37-2.2c-11.2-4.1-23.7-1.3-32.2,7.1S80.4,128.1,84.3,139.3z"/>
<path class="st1" d="M161.5,295.3c-3.5,9.6-13.5,15-23.5,12.8s-16.7-11.5-15.7-21.6c1.9,8.4,8.4,14.9,16.8,16.8
	C147.5,305.2,156.2,302.1,161.5,295.3L161.5,295.3z"/>
<path class="st1" d="M222.4,50.5c9.4-3.9,20.2-0.1,25.2,8.7s2.7,20-5.4,26.1c4.9-7,5.3-16.2,1.1-23.7S231,49.8,222.4,50.5
	L222.4,50.5z"/>
<path class="st1" d="M343.2,237.2c11.8-4.9,25.5-0.2,31.8,11c6.3,11.1,3.5,25.2-6.8,32.9c6.2-8.9,6.7-20.5,1.4-29.9
	S354,236.3,343.2,237.2L343.2,237.2z"/>
<path class="st2" d="M359.9,110.1c-2.6-7.7-11-11.8-18.7-9.2c-7.7,2.6-11.8,11-9.2,18.7c0.4,1.2,1,2.4,1.7,3.4
	c-1.4-3.9-0.6-8.5,2.3-11.8c4-4.5,10.6-5.3,15.6-1.9c-4.8-1.4-10,0.1-13.4,3.9c-2.9,3.3-3.9,7.7-2.9,11.9c3.8,4,9.7,5.7,15.3,3.8
	C358.4,126.2,362.4,117.8,359.9,110.1L359.9,110.1z"/>
<rect x="62.6" y="16.8" class="st3" width="332.7" height="332.7"/>
</svg>
