<?xml version="1.0" encoding="utf-8"?>
<!-- Generator: Adobe Illustrator 26.3.1, SVG Export Plug-In . SVG Version: 6.00 Build 0)  -->
<svg version="1.1" id="レイヤー_1" xmlns:serif="http://www.serif.com/"
	 xmlns="http://www.w3.org/2000/svg" xmlns:xlink="http://www.w3.org/1999/xlink" x="0px" y="0px" viewBox="0 0 456 456"
	 style="enable-background:new 0 0 456 456;" xml:space="preserve">
<style type="text/css">
	.st0{fill:#FFFFFF;stroke:#FFFFFF;stroke-width:2.8346;stroke-miterlimit:10;}
</style>
<g>
	<g>
		<path class="st0" d="M78.8,212.5h-7.5c-1.9,0-3.5,1.1-4.3,2.7l-21.5,47.1c-0.2,0.5-0.7,0.8-1.2,0.8c-0.5,0-0.9-0.3-1.1-0.8
			l-19.7-47.1c-0.7-1.6-2.3-2.7-4.1-2.7h-8.2c-0.7,0-1.2-0.5-1.2-1.3c0-0.7,0.5-1.2,1.2-1.2h8.2c2.8,0,5.3,1.7,6.4,4.3l18.3,43.8
			c0.1,0.2,0.4,0.2,0.5,0l20-43.9c1.2-2.6,3.8-4.2,6.6-4.2h7.5c0.7,0,1.2,0.5,1.2,1.2C80.1,212,79.5,212.5,78.8,212.5z M27.9,263.1
			H11.3c-0.7,0-1.2-0.6-1.2-1.3c0-0.7,0.5-1.2,1.2-1.2h4.5c1.4,0,2.6-1.2,2.6-2.6v-41.3c0-0.7,0.5-1.3,1.2-1.3
			c0.7,0,1.2,0.6,1.2,1.3V258c0,0.7-0.2,1.4-0.4,2c-0.1,0.2,0.1,0.5,0.4,0.5h7c0.7,0,1.2,0.5,1.2,1.2
			C29.1,262.5,28.6,263.1,27.9,263.1z M78.8,263.1H62.3c-0.7,0-1.2-0.6-1.2-1.3c0-0.7,0.5-1.2,1.2-1.2h7.1c0.2,0,0.5-0.3,0.3-0.5
			c-0.2-0.6-0.4-1.3-0.4-2v-41.3c0-0.7,0.5-1.3,1.2-1.3c0.7,0,1.2,0.6,1.2,1.3V258c0,1.4,1.2,2.6,2.6,2.6h4.5c0.7,0,1.2,0.5,1.2,1.2
			C80.1,262.5,79.5,263.1,78.8,263.1z"/>
		<path class="st0" d="M119.6,212.5h-16.6c-0.7,0-1.2-0.5-1.2-1.3c0-0.7,0.5-1.2,1.2-1.2h16.6c0.7,0,1.2,0.5,1.2,1.2
			C120.9,212,120.3,212.5,119.6,212.5z M131.4,263.1h-28.3c-0.7,0-1.2-0.6-1.2-1.3c0-0.7,0.5-1.2,1.2-1.2h4.5c1.4,0,2.6-1.2,2.6-2.6
			v-41.3c0-0.7,0.5-1.3,1.2-1.3c0.7,0,1.2,0.6,1.2,1.3V258c0,0.7-0.2,1.4-0.4,2c-0.1,0.2,0.1,0.5,0.4,0.5h18.8
			c1.4,0,2.5-1.2,2.5-2.6v-7.3c0-0.7,0.6-1.2,1.3-1.2c0.7,0,1.2,0.5,1.2,1.2v7.3C136.5,260.8,134.2,263.1,131.4,263.1z"/>
		<path class="st0" d="M179,264.3c-11.5,0-20.9-9.4-20.9-20.9c0-11.5,9.4-20.9,20.9-20.9S200,232,200,243.4
			C200,255,190.6,264.3,179,264.3z M179,225.1c-10.1,0-18.4,8.3-18.4,18.4c0,10.1,8.2,18.4,18.4,18.4c10.1,0,18.4-8.2,18.4-18.4
			C197.4,233.3,189.2,225.1,179,225.1z"/>
		<path class="st0" d="M270.9,226.4h-5c-1.4,0-2.5,1.1-2.5,2.5v30.4c0,9.8-8,17.8-17.7,17.8h-9.1c-0.7,0-1.3-0.6-1.3-1.3
			c0-0.7,0.6-1.2,1.3-1.2h9.1c8.4,0,15.2-6.8,15.2-15.3v-15.9c0-10.1-8.2-18.4-18.4-18.4c-10.1,0-18.4,8.3-18.4,18.4
			c0,10.1,8.2,18.4,18.4,18.4c4.9,0,9.5-1.9,13-5.3c0.5-0.5,1.2-0.5,1.8,0c0.5,0.5,0.5,1.3,0,1.8c-3.9,3.9-9.2,6.1-14.8,6.1
			c-11.5,0-20.9-9.4-20.9-20.9c0-11.5,9.4-20.9,20.9-20.9c7.6,0,14.2,4.1,17.9,10.1c0.2,0.2,0.5,0.2,0.5-0.2v-3.6c0-2.8,2.2-5,5-5h5
			c0.7,0,1.2,0.5,1.2,1.2C272.1,225.8,271.6,226.4,270.9,226.4z"/>
		<path class="st0" d="M340,226.4h-5c-1.4,0-2.5,1.1-2.5,2.5v30.4c0,9.8-8,17.8-17.7,17.8h-9.1c-0.7,0-1.3-0.6-1.3-1.3
			c0-0.7,0.6-1.2,1.3-1.2h9.1c8.4,0,15.2-6.8,15.2-15.3v-15.9c0-10.1-8.2-18.4-18.4-18.4c-10.1,0-18.4,8.3-18.4,18.4
			c0,10.1,8.2,18.4,18.4,18.4c4.9,0,9.5-1.9,13-5.3c0.5-0.5,1.2-0.5,1.8,0c0.5,0.5,0.5,1.3,0,1.8c-3.9,3.9-9.2,6.1-14.8,6.1
			c-11.5,0-20.9-9.4-20.9-20.9c0-11.5,9.4-20.9,20.9-20.9c7.6,0,14.2,4.1,17.9,10.1c0.2,0.2,0.5,0.2,0.5-0.2v-3.6c0-2.8,2.2-5,5-5h5
			c0.7,0,1.2,0.5,1.2,1.2C341.2,225.8,340.7,226.4,340,226.4z"/>
		<path class="st0" d="M399.5,243c-0.9,1.1-2.2,1.7-3.5,1.7h-30.4c-0.7,0-1.3-0.6-1.3-1.3c0-0.7,0.6-1.2,1.3-1.2H396
			c0.6,0,1.2-0.3,1.5-0.8c0.4-0.5,0.5-1.1,0.4-1.6c-1.7-8.5-9.3-14.7-18-14.7c-10.1,0-18.4,8.3-18.4,18.4c0,10.1,8.2,18.4,18.4,18.4
			c6.1,0,11.8-3,15.3-8.1c0.4-0.6,1.2-0.8,1.7-0.3c0.6,0.4,0.8,1.2,0.4,1.7c-3.9,5.8-10.4,9.2-17.3,9.2c-11.5,0-20.9-9.4-20.9-20.9
			c0-11.5,9.4-20.9,20.9-20.9c9.9,0,18.5,7,20.4,16.7C400.7,240.6,400.3,241.9,399.5,243z"/>
		<path class="st0" d="M448.8,225.1c-10.1,0-18.4,8.3-18.4,18.4V258c0,0.7-0.2,1.4-0.4,2c-0.1,0.2,0.1,0.5,0.4,0.5h6.9
			c0.7,0,1.2,0.5,1.2,1.2c0,0.7-0.5,1.3-1.2,1.3h-16.8c-0.7,0-1.3-0.6-1.3-1.3c0-0.7,0.6-1.2,1.3-1.2h4.9c1.4,0,2.6-1.2,2.6-2.6
			v-29.1c0-1.4-1.2-2.5-2.6-2.5h-5c-0.7,0-1.2-0.6-1.2-1.3c0-0.7,0.5-1.2,1.2-1.2h5c2.8,0,5,2.2,5,5v3.6c0,0.3,0.4,0.4,0.5,0.2
			c3.6-6,10.3-10.1,17.9-10.1c0.7,0,1.2,0.6,1.2,1.3C450,224.5,449.5,225.1,448.8,225.1z"/>
	</g>
</g>
</svg>
